<svg width="153" height="73" viewBox="0 0 153 73" fill="none" xmlns="http://www.w3.org/2000/svg">
<path d="M64.8444 23.9119C62.3484 23.9119 60.6044 23.2399 59.6124 21.8959C58.6364 20.5519 58.1484 18.4319 58.1484 15.5359C58.1484 12.6239 58.6444 10.4639 59.6364 9.05595C60.6444 7.64795 62.3804 6.94395 64.8444 6.94395C67.3084 6.94395 69.0364 7.64795 70.0284 9.05595C71.0204 10.4479 71.5164 12.5999 71.5164 15.5119C71.5164 17.4319 71.3084 18.9839 70.8924 20.1679C70.4924 21.3519 69.8284 22.2559 68.9004 22.8799L70.9164 26.1199L68.4444 27.2719L66.3084 23.7679C66.0044 23.8639 65.5164 23.9119 64.8444 23.9119ZM61.7244 20.1919C62.2684 21.1199 63.3084 21.5839 64.8444 21.5839C66.3804 21.5839 67.4124 21.1279 67.9404 20.2159C68.4844 19.2879 68.7564 17.7279 68.7564 15.5359C68.7564 13.3439 68.4764 11.7519 67.9164 10.7599C67.3724 9.76795 66.3484 9.27195 64.8444 9.27195C63.3404 9.27195 62.3084 9.76795 61.7484 10.7599C61.1884 11.7519 60.9084 13.3359 60.9084 15.5119C60.9084 17.6879 61.1804 19.2479 61.7244 20.1919ZM77.8824 18.3919C77.8824 20.5199 79.0024 21.5839 81.2424 21.5839C83.4824 21.5839 84.6024 20.5199 84.6024 18.3919V7.20795H87.2904V18.3439C87.2904 20.2799 86.7784 21.6959 85.7544 22.5919C84.7464 23.4719 83.2344 23.9119 81.2184 23.9119C79.2184 23.9119 77.7144 23.4719 76.7064 22.5919C75.6984 21.6959 75.1944 20.2799 75.1944 18.3439V7.20795H77.8824V18.3919ZM90.1111 23.6479L94.1671 7.20795H99.4711L103.551 23.6479H100.863L99.9751 20.1199H93.6631L92.7751 23.6479H90.1111ZM96.2311 9.43995L94.1911 17.7679H99.4471L97.4311 9.43995H96.2311ZM112.302 23.6479H106.614V7.20795H112.302C114.83 7.20795 116.558 7.84795 117.486 9.12795C118.414 10.4079 118.878 12.4159 118.878 15.1519C118.878 16.5439 118.782 17.7279 118.59 18.7039C118.414 19.6639 118.094 20.5359 117.63 21.3199C116.718 22.8719 114.942 23.6479 112.302 23.6479ZM116.118 15.1519C116.118 13.1679 115.87 11.7359 115.374 10.8559C114.878 9.97595 113.854 9.53595 112.302 9.53595H109.278V21.2959H112.302C113.886 21.2959 114.942 20.7119 115.47 19.5439C115.726 18.9519 115.894 18.3199 115.974 17.6479C116.07 16.9759 116.118 16.1439 116.118 15.1519ZM125.373 17.7919V23.6479H122.709V7.20795H128.949C132.661 7.20795 134.517 8.95195 134.517 12.4399C134.517 14.7759 133.621 16.3599 131.829 17.1919L134.541 23.6479H131.613L129.237 17.7919H125.373ZM131.781 12.4639C131.781 10.4959 130.837 9.51195 128.949 9.51195H125.373V15.4879H128.997C129.957 15.4879 130.661 15.2159 131.109 14.6719C131.557 14.1119 131.781 13.3759 131.781 12.4639ZM141.121 20.1679C141.665 21.1119 142.705 21.5839 144.241 21.5839C145.777 21.5839 146.809 21.1199 147.337 20.1919C147.881 19.2639 148.153 17.7119 148.153 15.5359C148.153 13.3439 147.873 11.7519 147.313 10.7599C146.769 9.76795 145.745 9.27195 144.241 9.27195C142.737 9.27195 141.705 9.76795 141.145 10.7599C140.585 11.7519 140.305 13.3359 140.305 15.5119C140.305 17.6719 140.577 19.2239 141.121 20.1679ZM149.425 21.8959C148.449 23.2399 146.721 23.9119 144.241 23.9119C141.761 23.9119 140.025 23.2399 139.033 21.8959C138.041 20.5359 137.545 18.4079 137.545 15.5119C137.545 12.6159 138.041 10.4639 139.033 9.05595C140.041 7.64795 141.777 6.94395 144.241 6.94395C146.705 6.94395 148.433 7.64795 149.425 9.05595C150.417 10.4479 150.913 12.5999 150.913 15.5119C150.913 18.4239 150.417 20.5519 149.425 21.8959ZM73.8304 52.9119C71.4304 52.9119 69.7984 52.2479 68.9344 50.9199C68.0864 49.5919 67.6624 47.4079 67.6624 44.3679C67.6624 41.3279 68.0944 39.1679 68.9584 37.8879C69.8224 36.5919 71.4464 35.9439 73.8304 35.9439C75.2544 35.9439 76.8224 36.1439 78.5344 36.5439L78.4384 38.7039C76.9984 38.4479 75.5584 38.3199 74.1184 38.3199C72.6784 38.3199 71.7024 38.7519 71.1904 39.6159C70.6784 40.4639 70.4224 42.0719 70.4224 44.4399C70.4224 46.7919 70.6704 48.3999 71.1664 49.2639C71.6624 50.1119 72.6304 50.5359 74.0704 50.5359C75.5104 50.5359 76.9664 50.4159 78.4384 50.1759L78.5104 52.3839C76.8624 52.7359 75.3024 52.9119 73.8304 52.9119ZM84.7536 49.1679C85.2976 50.1119 86.3376 50.5839 87.8736 50.5839C89.4096 50.5839 90.4416 50.1199 90.9696 49.1919C91.5136 48.2639 91.7856 46.7119 91.7856 44.5359C91.7856 42.3439 91.5056 40.7519 90.9456 39.7599C90.4016 38.7679 89.3776 38.2719 87.8736 38.2719C86.3696 38.2719 85.3376 38.7679 84.7776 39.7599C84.2176 40.7519 83.9376 42.3359 83.9376 44.5119C83.9376 46.6719 84.2096 48.2239 84.7536 49.1679ZM93.0576 50.8959C92.0816 52.2399 90.3536 52.9119 87.8736 52.9119C85.3936 52.9119 83.6576 52.2399 82.6656 50.8959C81.6736 49.5359 81.1776 47.4079 81.1776 44.5119C81.1776 41.6159 81.6736 39.4639 82.6656 38.0559C83.6736 36.6479 85.4096 35.9439 87.8736 35.9439C90.3376 35.9439 92.0656 36.6479 93.0576 38.0559C94.0496 39.4479 94.5456 41.5999 94.5456 44.5119C94.5456 47.4239 94.0496 49.5519 93.0576 50.8959ZM104.392 47.5359H101.032V52.6479H98.3676V36.2079H104.392C108.12 36.2079 109.984 38.0479 109.984 41.7279C109.984 43.6159 109.512 45.0559 108.568 46.0479C107.64 47.0399 106.248 47.5359 104.392 47.5359ZM101.032 45.2319H104.368C106.288 45.2319 107.248 44.0639 107.248 41.7279C107.248 40.6079 107.016 39.7919 106.552 39.2799C106.088 38.7679 105.36 38.5119 104.368 38.5119H101.032V45.2319ZM115.931 46.7919V52.6479H113.267V36.2079H119.507C123.219 36.2079 125.075 37.9519 125.075 41.4399C125.075 43.7759 124.179 45.3599 122.387 46.1919L125.099 52.6479H122.171L119.795 46.7919H115.931ZM122.339 41.4639C122.339 39.4959 121.395 38.5119 119.507 38.5119H115.931V44.4879H119.555C120.515 44.4879 121.219 44.2159 121.667 43.6719C122.115 43.1119 122.339 42.3759 122.339 41.4639ZM131.679 49.1679C132.223 50.1119 133.263 50.5839 134.799 50.5839C136.335 50.5839 137.367 50.1199 137.895 49.1919C138.439 48.2639 138.711 46.7119 138.711 44.5359C138.711 42.3439 138.431 40.7519 137.871 39.7599C137.327 38.7679 136.303 38.2719 134.799 38.2719C133.295 38.2719 132.263 38.7679 131.703 39.7599C131.143 40.7519 130.863 42.3359 130.863 44.5119C130.863 46.6719 131.135 48.2239 131.679 49.1679ZM139.983 50.8959C139.007 52.2399 137.279 52.9119 134.799 52.9119C132.319 52.9119 130.583 52.2399 129.591 50.8959C128.599 49.5359 128.103 47.4079 128.103 44.5119C128.103 41.6159 128.599 39.4639 129.591 38.0559C130.599 36.6479 132.335 35.9439 134.799 35.9439C137.263 35.9439 138.991 36.6479 139.983 38.0559C140.975 39.4479 141.471 41.5999 141.471 44.5119C141.471 47.4239 140.975 49.5519 139.983 50.8959Z" fill="white"/>
<path d="M28.233 39.2631L28.6074 38.4203L36.3978 20.9332L29.7373 5.97449L14.9086 39.2631L29.7373 72.5561L36.3978 57.5974L28.6074 40.1103L28.233 39.2631Z" fill="white"/>
<path d="M20.4426 55.0646L14.9086 67.4905L2.33978 39.2631L14.9086 11.0401L20.4426 23.4616L21.5725 20.9332L14.9086 5.97449L0.083313 39.2631L14.9086 72.5561L21.5725 57.5974L20.4426 55.0646Z" fill="white"/>
<path d="M44.2255 35.1988L44.2357 35.2077V29.8375L34.8865 50.8282L36.0743 53.4978L44.2255 35.1988Z" fill="white"/>
<path d="M44.2256 27.8563L44.2358 27.8651V22.495L33.2529 47.1614L34.4407 49.8266L44.2256 27.8563Z" fill="white"/>
<path d="M31.1701 42.4842L44.2256 13.1758L44.2358 13.1846V6.70691L29.7372 39.263L31.1701 42.4842Z" fill="white"/>
<path d="M44.2255 20.5138L44.2357 20.5226V15.1569L31.6158 43.4901L32.8036 46.1553L44.2255 20.5138Z" fill="white"/>
<path d="M44.8857 6.70679V71.8234L59.3877 39.2629L44.8857 6.70679Z" fill="white"/>
<path d="M44.2255 42.537L44.2357 42.5458V37.1757L36.5201 54.4995L37.7079 57.1647L44.2255 42.537Z" fill="white"/>
<path d="M44.2255 49.8796L44.2357 49.8884V44.5183L38.1572 58.1709L39.345 60.8361L44.2255 49.8796Z" fill="white"/>
<path d="M44.2357 64.8339L42.6804 68.3286L44.2357 71.8234V64.8339Z" fill="white"/>
<path d="M42.2345 67.3226L44.2255 62.8526L44.2357 62.8614V59.199L41.4245 65.5134L42.2345 67.3226Z" fill="white"/>
<path d="M44.2255 57.2177L44.2358 57.2266V51.8608L39.7909 61.8421L40.9787 64.5073L44.2255 57.2177Z" fill="white"/>
</svg>
