<svg width="24" height="24" viewBox="0 0 24 24" fill="none" xmlns="http://www.w3.org/2000/svg">
  <path d="M7.29306 8.70617C6.90251 8.31567 6.90247 7.68251 7.29297 7.29196C7.68347 6.90141 8.31664 6.90137 8.70719 7.29187L12.0005 10.5847L15.2931 7.29255C15.6836 6.90205 16.3168 6.90209 16.7073 7.29263C17.0978 7.68318 17.0977 8.31635 16.7072 8.70685L13.4148 11.9989L16.7072 15.2909C17.0977 15.6814 17.0978 16.3146 16.7073 16.7051C16.3168 17.0957 15.6836 17.0957 15.2931 16.7052L12.0005 13.413L8.70719 16.7059C8.31664 17.0964 7.68347 17.0963 7.29297 16.7058C6.90247 16.3152 6.90251 15.6821 7.29306 15.2916L10.5862 11.9989L7.29306 8.70617Z" />
</svg>
